<?xml version="1.0" encoding="utf-8"?>
<svg version="1.1" id="Layer_1" xmlns="http://www.w3.org/2000/svg" xmlns:xlink="http://www.w3.org/1999/xlink" x="0px" y="0px"
	 viewBox="0 0 120 120" style="enable-background:new 0 0 120 120;" xml:space="preserve">
<style type="text/css">
	.st0{fill:none;}
	.st1{fill:#FFFFFF;}
</style>
<rect id="Boundary" class="st0" width="120" height="120"/>
<g id="Layer_3">
	<path class="st1" d="M109.8,55.4c-0.1-1.1-1-1.8-2.1-1.7s-1.8,1-1.7,2.1c0.1,1.4,0.2,2.8,0.2,4.3c0,25.5-20.7,46.1-46.2,46.2V91.6
		h-0.8c-1.4,0-2.7-0.2-4.1-0.4C37.8,88.5,26,72.3,28.8,55c0.1-0.9,0.3-1.9,0.6-2.8c0.3-1,1.3-1.7,2.3-1.4c1,0.3,1.7,1.3,1.4,2.3
		c-0.6,2.2-0.8,4.5-0.8,6.8c-0.1,13.7,9.9,25.4,23.4,27.4c1.2,0.2,2.4,0.3,3.6,0.3H60V73.3l0,0c7.3,0,13.3-6,13.3-13.3
		c0-1.8-0.4-3.5-1-5.1c-0.5-1-1.6-1.4-2.6-0.9c-0.9,0.4-1.3,1.5-1,2.4c2,4.8-0.2,10.4-5.1,12.4c-1.2,0.5-2.4,0.7-3.6,0.7l0,0
		c-5.2,0-9.4-4.2-9.4-9.4s4.2-9.4,9.4-9.4l0,0l0,0c1.3,0,2.5,0.2,3.7,0.7c1,0.3,2.1-0.2,2.4-1.2c0.3-0.9-0.1-1.9-1-2.3
		c-1.6-0.7-3.4-1-5.1-1l0,0V32.2h1.3c0.5,0,1,0.1,1.5,0.1h0.3c0.5,0,1,0.1,1.5,0.2l0.4,0.1c0.5,0.1,1,0.2,1.5,0.3l0.3,0.1l0,0
		c0.2,0,0.3,0.1,0.5,0.1c1.1,0,1.9-0.9,1.9-2c0-0.9-0.6-1.6-1.4-1.8L67,29.1c-0.4-0.1-0.8-0.2-1.2-0.2s-0.7-0.1-1-0.1
		s-0.7-0.1-1.1-0.2s-0.6-0.1-1-0.1l-1.1-0.1h-0.9H60V13.9c18.8-0.1,35.8,11.4,42.8,28.9c0.4,1,1.5,1.5,2.5,1.1s1.5-1.5,1.1-2.5l0,0
		C96,15.7,66.9,3.3,41.3,13.6s-38,39.5-27.7,65.1s39.5,38,65.1,27.7C97.6,98.7,110,80.4,110,60C110,58.5,109.9,56.9,109.8,55.4z
		 M32.8,43.8c1.5-2.5,3.3-4.7,5.3-6.7c0.9-0.9,1.8-1.7,2.8-2.4c-0.2-0.7-0.3-1.3-0.3-2c0-4.4,3.5-7.9,7.9-7.9s7.9,3.5,7.9,7.9
		s-3.5,7.9-7.9,7.9c-2.2,0-4.3-0.9-5.8-2.5c-0.7,0.6-1.4,1.2-2.1,1.8c-1.8,1.7-3.4,3.7-4.7,5.9c-0.3,0.6-1,0.9-1.7,0.9
		c-0.4,0-0.7-0.1-1-0.3C32.6,45.9,32.3,44.7,32.8,43.8L32.8,43.8z M87.8,60c0-9.8-5.1-18.8-13.5-23.8l0,0c-0.9-0.6-1.2-1.7-0.6-2.6
		c0.6-0.9,1.7-1.2,2.6-0.6c0.6,0.4,1.2,0.7,1.8,1.1c8.5,5.9,13.6,15.6,13.6,26c0,1.5-0.1,3-0.3,4.5v0.1c-0.1,0.8-0.2,1.5-0.4,2.2
		l0,0c-1,4.5-2.9,8.7-5.7,12.3c0,0.1-0.1,0.1-0.2,0.2c-2.5,3.3-5.7,6.1-9.3,8.1c0,2.4-2,4.3-4.4,4.3s-4.3-2-4.3-4.4s2-4.3,4.4-4.3
		c1,0,1.9,0.4,2.7,1C82.6,79,87.8,69.9,87.8,60z"/>
</g>
</svg>
